/* XPM */
static char *_61817e267344fa9fda3fb4db438d4857zHiQ1xGd9scHzs1[] = {
/* columns rows colors chars-per-pixel */
"60 60 43 1 ",
"  c black",
". c #261700",
"X c #1F2731",
"o c #212A35",
"O c #222A34",
"+ c #272E35",
"@ c #252D36",
"# c #212C3A",
"$ c #2B3137",
"% c #25303B",
"& c #25303D",
"* c #2A313A",
"= c #393A3D",
"- c #3A3C3E",
"; c #273343",
": c #2B3541",
"> c #2C3644",
", c #2F3A47",
"< c #2B394B",
"1 c #2C3948",
"2 c #2D3C4E",
"3 c #303E4E",
"4 c #3C4044",
"5 c #3E4145",
"6 c #324152",
"7 c #3A4857",
"8 c #424140",
"9 c #404347",
"0 c gray33",
"q c gray39",
"w c DimGray",
"e c #6B6A6A",
"r c #6D6C6B",
"t c #706F6E",
"y c #717171",
"u c #7B7C7D",
"i c #7E7E7E",
"p c #9B4F4F",
"a c #808080",
"s c #848484",
"d c gray55",
"f c #8E8E8E",
"g c #CFB4B4",
/* pixels */
"777666666666666666666777666666666666666666777666666666666666",
"777666666666666666666777666666666666666666777666666666666666",
"777666666666666666666777666666666666666666777666666666666666",
"777222222222222222666777666222222222222222777222222222222222",
"777222222222222222666777666222222222222222777222222222222222",
"777222222222222222666777666222222222222222777222222222222222",
"777222222222222222222777222222222222222222777222222222222222",
"777222222222222222222777222222222222222222777222222222222222",
"777222222222222222222777222222222222222222777222222222222222",
"777222222222222222222777222222222222222222777222222222222222",
"777222222222222222222777222222222222222222777222222222222222",
"777222222222222222222777222222222222222222777222222222222222",
"666777777777777777777666777777777777777777666777777777777777",
"666777777777777777777666777777777777777777666777777777777777",
"666777777777777777777666777777777777777777666777777777777777",
"777666666666333&&&&&&:::         &&&      :::111666666666666",
"777666666666332&&&&&&:::         &&&      :::111666666666666",
"777666666666333&&&&&&:::         &&&      :::111666666666666",
"777222222<<<XXX555555   ggggggddd   yyyyyy   @@@OOO<<<222222",
"777222222<<<XXX555555   ggggggddd   yyyyyy   @@@OOO<<<222222",
"777222222<<<XXX555555   ggggggddd   yyyyyy   @@@OOO<<<222222",
"777222222###555iiiiii   ggggggddd   yyyyyy   iii555###222222",
"777222222###555iiiiii   ggggggddd   yyyyyy   eii555###222222",
"777222222###555iiiiii   ggggggddd   yyyyyy   eii555###222222",
"777222222   555iiiqqq   ggggggddddddddddddddd   555###222222",
"777222222   555iiiqqq   ggggggddddddddddddddd   555###222222",
"777222222   555iiiqqq   ggggggddddddddddddddd   555###222222",
"666777   ggg   ddd000      ggggggddd...ddd...   555:::777777",
"666777   ggg   ddd000      ggggggddd...ddd...   =55:::777777",
"666777   ggg   ddd000      ggggggddd...ddd...   =55:::777777",
"777666666   ggg   000stt      dddddd...ddd...   =55&&&666666",
"7776666,,   ggg   000stt      dddddd...ddd...   =55&&&666666",
"7776666,,   ggg   000stt      dddddd...ddd...   =55&&&666666",
"7776662>>OOO   ggg      yyyyyyyyyddddddggggggppp   ###222222",
"777666222#OO   ggg      yyyyyyyyyddddddggggggppp   ###222222",
"777666222#OO   ggg      yyyyyyyyyddddddggggggppp   ###222222",
"777222222#OO===   gggyyyyyyyyyyyyyyyyyy         =55###222222",
"777222222###5==   gggyyyyyyyyyyyyyyyyyy         ===O##222222",
"777222222###5==   gggyyyyyyyyyyyyyyyyyy         ===O##222222",
"777222222###5==eee   yyyyyyyyyyyyyyyyyy   888eee===O##222222",
"777222222###555iee   yyyyyyyyyyyyyyyyyy   888eee=55###222222",
"777222222###555iee   yyyyyyyyyyyyyyyyyy   888eee=55###222222",
"666777777:::999arrrrr   yyy      yyy   tttrrreee-99:::777777",
"666777777:::999aaaarr   yyy      yyy   tttraauuu999:::777777",
"666777777:::999aaaarr   yyy      yyy   tttraauuu999:::777777",
"777666666333%%%5555==---==================-99$$$&&&333666666",
"777666666333%%%5555559--================55999$$$&&&333666666",
"777666666333%%%5555559--================55999$$$&&&333666666",
"777222222222<<<######:**OOOOOOOOOOOOOOO@&&:::;;;222222222222",
"777222222222<<<######:::###############&&&:::;;;222222222222",
"777222222222<<<######:::###############&&&:::;;;222222222222",
"777222222222222222222777222222222222222666777222222222222222",
"777222222222222222222777222222222222222666777222222222222222",
"777222222222222222222777222222222222222666777222222222222222",
"777222222222222222222777222222222222222222777222222222222222",
"777222222222222222222777222222222222222222777222222222222222",
"777222222222222222222777222222222222222222777222222222222222",
"666777777777777777777666777777777777777777666777777777777777",
"666777777777777777777666777777777777777777666777777777777777",
"666777777777777777777666777777777777777777666777777777777777"
};
