/* XPM */
static char *a70475729d224bbebb7ee5dfb7251e71Wj5nv2mnqhr3gs16[] = {
/* columns rows colors chars-per-pixel */
"60 60 19 1 ",
"  c #3E181B",
". c #3E191C",
"X c #3E191D",
"o c #3D1C20",
"O c #3C1F24",
"+ c #3B232A",
"@ c #392830",
"# c #382C36",
"$ c #372F3A",
"% c #5F2C23",
"& c #7F3F2B",
"* c #2D3C4E",
"= c #324152",
"- c #324253",
"; c #3A4857",
": c #A2573C",
"> c #A2583C",
", c #A3583C",
"< c #A4583C",
/* pixels */
";;;$$$###@@@+++OOOooo...                     ---------------",
";;;$$$###@@@+++OOOooo...                     ---------------",
";;;$$$###@@@+++OOOooo...                     ---------------",
"...:::>>>>>><<<<<<<<<<<<<<<<<<<<<<<<<<<<<<<<<   ************",
"...:::>>>>>><<<<<<<<<<<<<<<<<<<<<<<<<<<<<<<<<   ************",
"...:::>>>>>><<<<<<<<<<<<<<<<<<<<<<<<<<<<<<<<<   ************",
"   <<<<<<<<<<<<<<<<<<<<<<<<<<<<<<<<<<<<<<<<<<   ************",
"   <<<<<<<<<<<<<<<<<<<<<<<<<<<<<<<<<<<<<<<<<<   ************",
"   <<<<<<<<<<<<<<<<<<<<<<<<<<<<<<<<<<<<<<<<<<   ************",
"   <<<<<<<<<<<<<<<<<<<<<<<<<<<<<<<<<<<<<<<<<<   ************",
"   <<<<<<<<<<<<<<<<<<<<<<<<<<<<<<<<<<<<<<<<<<   ************",
"   <<<<<<<<<<<<<<<<<<<<<<<<<<<<<<<<<<<<<<<<<<   ************",
"                                                ;;;;;;;;;;;;",
"                                                ;;;;;;;;;;;;",
"                                                ;;;;;;;;;;;;",
"   <<<<<<<<<<<<<<<<<<<<<<<<<<<<<<<<<<<<<<<<<<   ------------",
"   <<<<<<<<<<<<<<<<<<<<<<<<<<<<<<<<<<<<<<<<<<   ------------",
"   <<<<<<<<<<<<<<<<<<<<<<<<<<<<<<<<<<<<<<<<<<   ------------",
"   <<<<<<<<<<<<<<<<<<<<<<<<<<<<<<<<<<<<<<<<<<   ************",
"   <<<<<<<<<<<<<<<<<<<<<<<<<<<<<<<<<<<<<<<<<<   ************",
"   <<<<<<<<<<<<<<<<<<<<<<<<<<<<<<<<<<<<<<<<<<   ************",
"   <<<<<<<<<<<<<<<<<<<<<<<<<<<<<<<<<<<<<<<<<<   ************",
"   <<<<<<<<<<<<<<<<<<<<<<<<<<<<<<<<<<<<<<<<<<   ************",
"   <<<<<<<<<<<<<<<<<<<<<<<<<<<<<<<<<<<<<<<<<<   ************",
"   <<<<<<<<<<<<<<<<<<<<<               <<<<<<   ************",
"   <<<<<<<<<<<<<<<<<<<<<               <<<<<<   ************",
"   <<<<<<<<<<<<<<<<<<<<<               <<<<<<   ************",
"   %%%%%%%%%%%%%%%%%%   <<<<<<<<<<<<<<<                  ;;;",
"   %%%%%%%%%%%%%%%%%%   <<<<<<<<<<<<<<<                  ;;;",
"   %%%%%%%%%%%%%%%%%%   <<<<<<<<<<<<<<<                  ;;;",
"   &&&&&&&&&&&&&&&&&&   <<<<<<<<<<<<<<<<<<<<<<<<<<<<<<<<<   ",
"   &&&&&&&&&&&&&&&&&&   <<<<<<<<<<<<<<<<<<<<<<<<<<<<<<<<<   ",
"   &&&&&&&&&&&&&&&&&&   <<<<<<<<<<<<<<<<<<<<<<<<<<<<<<<<<   ",
"   &&&&&&&&&&&&&&&&&&   <<<<<<<<<<<<<<<<<<<<<<<<<<<<<<<<<   ",
"   &&&&&&&&&&&&&&&&&&   <<<<<<<<<<<<<<<<<<<<<<<<<<<<<<<<<   ",
"   &&&&&&&&&&&&&&&&&&   <<<<<<<<<<<<<<<<<<<<<<<<<<<<<<<<<   ",
"   &&&&&&&&&&&&&&&&&&   <<<<<<<<<<<<<<<<<<<<<<<<<<<<<<<<<   ",
"   &&&&&&&&&&&&&&&&&&   <<<<<<<<<<<<<<<<<<<<<<<<<<<<<<<<<   ",
"   &&&&&&&&&&&&&&&&&&   <<<<<<<<<<<<<<<<<<<<<<<<<<<<<<<<<   ",
"   &&&&&&&&&&&&&&&&&&   <<<<<<<<<<<<<<<<<<<<<<<<<<<<<<<<<   ",
"   &&&&&&&&&&&&&&&&&&   <<<<<<<<<<<<<<<<<<<<<<<<<<<<<<<<<   ",
"   &&&&&&&&&&&&&&&&&&   <<<<<<<<<<<<<<<<<<<<<<<<<<<<<<<<<   ",
"   &&&&&&&&&&&&&&&&&&   %%%%%%%%%%%%%%%<<<<<<<<<<<<<<<<<<   ",
"   &&&&&&&&&&&&&&&&&&   %%%%%%%%%%%%%%%<<<<<<<<<<<<<<<<<<   ",
"   &&&&&&&&&&&&&&&&&&   %%%%%%%%%%%%%%%<<<<<<<<<<<<<<<<<<   ",
";;;                     &&&&&&&&&&&&&&&%%%%%%%%%%%%%%%%%%   ",
";;;                     &&&&&&&&&&&&&&&%%%%%%%%%%%%%%%%%%   ",
";;;                     &&&&&&&&&&&&&&&%%%%%%%%%%%%%%%%%%   ",
";;;******************;;;   %%%%%%%%%%%%&&&&&&&&&&&&&&&&&&   ",
";;;******************;;;   %%%%%%%%%%%%&&&&&&&&&&&&&&&&&&   ",
";;;******************;;;   %%%%%%%%%%%%&&&&&&&&&&&&&&&&&&   ",
";;;******************   &&&&&&&&&&&&&&&%%%%%%%%%%%%&&&&&&   ",
";;;******************   &&&&&&&&&&&&&&&%%%%%%%%%%%%&&&&&&   ",
";;;******************   &&&&&&&&&&&&&&&%%%%%%%%%%%%&&&&&&   ",
";;;******************;;;               &&&&&&&&&&&&&&&&&&   ",
";;;******************;;;               &&&&&&&&&&&&&&&&&&   ",
";;;******************;;;               &&&&&&&&&&&&&&&&&&   ",
"---;;;;;;;;;;;;;;;;;;---;;;;;;;;;;;;;;;                  ;;;",
"---;;;;;;;;;;;;;;;;;;---;;;;;;;;;;;;;;;                  ;;;",
"---;;;;;;;;;;;;;;;;;;---;;;;;;;;;;;;;;;                  ;;;"
};
