/* XPM */
static char *_a03feefe2f343a9ea2d7802aa6217e340gE6r2xwkNVrJ0y[] = {
/* columns rows colors chars-per-pixel */
"60 60 13 1 ",
"  c black",
". c #010202",
"X c #050607",
"o c #222A33",
"O c #252E38",
"+ c #2D3C4E",
"@ c #324152",
"# c #324253",
"$ c #384554",
"% c #3A4857",
"& c #947B05",
"* c #D4B108",
"= c #EFD456",
/* pixels */
"%%%@@@@@@@@@@@@@@@@@@%%%@@@@@@@@@@@@@@@@@@%%%@@@@@@@@@@@@@@@",
"%%%@@@@@@@@@@@@@@@@@@%%%@@@@@@@@@@@@@@@@@@%%%@@@@@@@@@@@@@@@",
"%%%@@@@@@@@@@@@@@@@@@%%%@@@@@@@@@@@@@@@@@@%%%@@@@@@@@@@@@@@@",
"%%%+++++++++++++++@@@%%%@@@+++++++++++++++%%%+++++++++++++++",
"%%%+++++++++++++++@@@%%%@@@+++++++++++++++%%%+++++++++++++++",
"%%%+++++++++++++++@@@%%%@@@+++++++++++++++%%%+++++++++++++++",
"%%%++++++++++++++++++%%%++++++++++++++++++%%%+++++++++++++++",
"%%%++++++++++++++++++%%%++++++++++++++++++%%%+++++++++++++++",
"%%%++++++++++++++++++%%%++++++++++++++++++%%%+++++++++++++++",
"%%%++++++++++++++++++%%%++++++++++++++++++%%%+++++++++++++++",
"%%%++++++++++++++++++%%%++++++++++++++++++%%%+++++++++++++++",
"%%%++++++++++++++++++%%%++++++++++++++++++%%%+++++++++++++++",
"@@@%%%%%%%%%%%%%%%%%%@@@%%%%%%%%%%%%%%%%%%@@@%%%%%%%%%%%%%%%",
"@@@%%%%%%%%%%%%%%%%%%@@@%%%%%%%%%%%%%%%%%%@@@%%%%%%%%%%%%%%%",
"@@@%%%%%%%%%%%%%%%%%%@@@%%%%%%%%%%%%%%%%%%@@@%%%%%%%%%%%%%%%",
"%%%@@@@@@@@@@@@@@@@@@%%%@@@@@@@@@@@@@@@@@@%%%@@@@@@@@@@@@@@@",
"%%%@@@@@@@@@@@@@@@@@@%%%@@@@@@@@@@@@@@@@@@%%%@@@@@@@@@@@@@@@",
"%%%@@@@@@@@@@@@@@@@@@%%%@@@@@@@@@@@@@@@@@@%%%@@@@@@@@@@@@@@@",
"%%%+++++++++++++++@@@%%%+++++++++      @@@%%%@@@++++++++++++",
"%%%+++++++++++++++@@@%%%+++++++++      @@@%%%@@@++++++++++++",
"%%%+++++++++++++++@@@%%%+++++++++      @@@%%%@@@++++++++++++",
"%%%++++++++++++++++++%%%++++++   ======      +++++++++++++++",
"%%%++++++++++++++++++%%%++++++   ======      +++++++++++++++",
"%%%++++++++++++++++++%%%++++++   ======      +++++++++++++++",
"%%%++++++++++++++++++%%%+++   ===&&&======   +++++++++++++++",
"%%%++++++++++++++++++%%%+++   ===&&&======   +++++++++++++++",
"%%%++++++++++++++++++%%%+++   ===&&&======   +++++++++++++++",
"@@@%%%%%%%%%%%%%%%%%%@@@   ===============   %%%%%%%%%%%%%%%",
"@@@%%%%%%%%%%%%%%%%%%@@@   ===============   %%%%%%%%%%%%%%%",
"@@@%%%%%%%%%%%%%%%%%%@@@   ===============   %%%%%%%%%%%%%%%",
"%%%@@@@@@@@@@@@@@@@@@   ======&&&===***&&&   @@@@@@@@@@@@@@@",
"%%%@@@@@@@@@@@@@@@@@@   ======&&&===***&&&   @@@@@@@@@@@@@@@",
"%%%@@@@@@@@@@@@@@@@@@   ======&&&===***&&&   @@@@@@@@@@@@@@@",
"%%%@@@++++++++++++   ======&&&&&&*********   @@@++++++++++++",
"%%%@@@++++++++++++   ======&&&&&&*********   @@@++++++++++++",
"%%%@@@++++++++++++   ======&&&&&&*********   @@@++++++++++++",
"%%%+++++++++++++++   ======************   ooo+++++++++++++++",
"%%%+++++++++++++++   ======************   ooo+++++++++++++++",
"%%%+++++++++++++++   ======************   ooo+++++++++++++++",
"%%%+++++++++++++++   ***&&&******      +++%%%+++++++++++++++",
"%%%+++++++++++++++   ***&&&******      +++%%%+++++++++++++++",
"%%%+++++++++++++++   ***&&&******      +++%%%+++++++++++++++",
"@@@%%%%%%%%%%%%%%%OOO   XXX      $$$%%%%%%@@@%%%%%%%%%%%%%%%",
"@@@%%%%%%%%%%%%%%%OOO   XXX      $$$%%%%%%@@@%%%%%%%%%%%%%%%",
"@@@%%%%%%%%%%%%%%%OOO   XXX      $$$%%%%%%@@@%%%%%%%%%%%%%%%",
"%%%@@@@@@@@@@@@@@@@@@%%%@@@@@@@@@@@@@@@@@@%%%@@@@@@@@@@@@@@@",
"%%%@@@@@@@@@@@@@@@@@@%%%@@@@@@@@@@@@@@@@@@%%%@@@@@@@@@@@@@@@",
"%%%@@@@@@@@@@@@@@@@@@%%%@@@@@@@@@@@@@@@@@@%%%@@@@@@@@@@@@@@@",
"%%%++++++++++++++++++%%%+++++++++++++++@@@%%%+++++++++++++++",
"%%%++++++++++++++++++%%%+++++++++++++++@@@%%%+++++++++++++++",
"%%%++++++++++++++++++%%%+++++++++++++++@@@%%%+++++++++++++++",
"%%%++++++++++++++++++%%%+++++++++++++++@@@%%%+++++++++++++++",
"%%%++++++++++++++++++%%%+++++++++++++++@@@%%%+++++++++++++++",
"%%%++++++++++++++++++%%%+++++++++++++++@@@%%%+++++++++++++++",
"%%%++++++++++++++++++%%%++++++++++++++++++%%%+++++++++++++++",
"%%%++++++++++++++++++%%%++++++++++++++++++%%%+++++++++++++++",
"%%%++++++++++++++++++%%%++++++++++++++++++%%%+++++++++++++++",
"@@@%%%%%%%%%%%%%%%%%%@@@%%%%%%%%%%%%%%%%%%@@@%%%%%%%%%%%%%%%",
"@@@%%%%%%%%%%%%%%%%%%@@@%%%%%%%%%%%%%%%%%%@@@%%%%%%%%%%%%%%%",
"@@@%%%%%%%%%%%%%%%%%%@@@%%%%%%%%%%%%%%%%%%@@@%%%%%%%%%%%%%%%"
};
