/* XPM */
static char *dcba59b0c68940c9d5ae523cfbbe4563I559GlebUcGO4F8w[] = {
/* columns rows colors chars-per-pixel */
"60 60 37 1 ",
"  c black",
". c #010101",
"X c #010202",
"o c #020304",
"O c #222C38",
"+ c #212D3A",
"@ c #25303D",
"# c #26303D",
"$ c #293139",
"% c #2A3139",
"& c #2D333B",
"* c #31373F",
"= c #273443",
"- c #2B3540",
"; c #2B3641",
": c #2B394B",
"> c #2C3948",
", c #2D3C4E",
"< c #303E4E",
"1 c #324152",
"2 c #324253",
"3 c #374553",
"4 c #3A4857",
"5 c #4C5055",
"6 c #4E5156",
"7 c #4E5256",
"8 c #505357",
"9 c #5F5F5F",
"0 c gray40",
"q c #6F6F6F",
"w c #7A7A7B",
"e c #838383",
"r c #A7A7A7",
"t c gray66",
"y c #AEAEAE",
"u c #BCBCBC",
"i c #C0C0C0",
/* pixels */
"333@@@@@@@@@@@@@@@@@@;;;@@@@@@@@@>>>111111444111111111111111",
"333@@@@@@@@@@@@@@@@@@;;;@@@@@@@@@>>>111111444111111111111111",
"333@@@@@@@@@@@@@@@@@@;;;@@@@@@@@@>>>111111444111111111111111",
"$$$555555555555555555888555555555$$$+++:::444,,,,,,,,,,,,,,,",
"$$$555555555555555555888555555555$$$+++:::444,,,,,,,,,,,,,,,",
"$$$555555555555555555888555555555$$$+++:::444,,,,,,,,,,,,,,,",
"888rrrrrrrrryyyyyyiiiiiiiiiuuurrrrrr555+++444,,,,,,,,,,,,,,,",
"888rrrrrrrrryyyyyyiiiiiiiiiuuurrrrrr555+++444,,,,,,,,,,,,,,,",
"888rrrrrrrrryyyyyyiiiiiiiiiuuurrrrrr555+++444,,,,,,,,,,,,,,,",
"888rrreeerrreeerrreeerrreeerrreeerrr555+++444,,,,,,,,,,,,,,,",
"888rrreeerrreeerrreeerrreeerrreeerrr555+++444,,,,,,,,,,,,,,,",
"888rrreeerrreeerrreeerrreeerrreeerrr555+++444,,,,,,,,,,,,,,,",
"555uuuqqqiiiqqqiiiqqqiiiqqquuuqqquuu888;;;111444444444444444",
"555uuuqqqiiiqqqiiiqqqiiiqqquuuqqquuu888;;;111444444444444444",
"555uuuqqqiiiqqqiiiqqqiiiqqquuuqqquuu888;;;111444444444444444",
"888iiiqqqyyyqqqiiiqqqiiiqqqyyyqqquuu555@@@;;;>>>111111111111",
"888iiiqqqyyyqqqiiiqqqiiiqqqyyyqqquuu555@@@;;;>>>111111111111",
"888iiiqqqyyyqqqiiiqqqiiiqqqyyyqqquuu555@@@;;;>>>111111111111",
"888yyyqqqyyyqqqyyyqqqyyyqqqyyyqqqrrrwww555888&&&+++:::,,,,,,",
"888yyyqqqyyyqqqyyyqqqyyyqqqyyyqqqrrrwww555888&&&+++:::,,,,,,",
"888yyyqqqyyyqqqyyyqqqyyyqqqyyyqqqrrrwww555888&&&+++:::,,,,,,",
"888rrrqqqrrrqqqrrrqqqrrrqqqrrrqqqrrreee         555+++,,,,,,",
"888rrrqqqrrrqqqrrrqqqrrrqqqrrrqqqrrreee         555+++,,,,,,",
"888rrrqqqrrrqqqrrrqqqrrrqqqrrrqqqrrreee         555+++,,,,,,",
"888rrr999rrr999rrr999rrr999rrr999rrreee         555+++,,,,,,",
"888rrr999rrr999rrr999rrr999rrr999rrreee         555+++,,,,,,",
"888rrr999rrr999rrr999rrr999rrr999rrreee         555+++,,,,,,",
"555tttrrrrrryyyyyyyyyyyyyyyyyyrrryyyeee         888;;;444444",
"555tttrrrrrryyyyyyyyyyyyyyyyyyrrryyyeee         888;;;444444",
"555tttrrrrrryyyyyyyyyyyyyyyyyyrrryyyeee         888;;;444444",
"--;555555555wwweeeeeeeeeeeeeeeeee000            555@@@111111",
"--;555555555wwweeeeeeeeeeeeeeeeee000            555@@@111111",
";--555555555wwweeeeeeeeeeeeeeeeee000            555@@@111111",
"333@@@++++++555                                 555+++,,,,,,",
"333@@@++++++555                                 555+++,,,,,,",
"333@@@++++++555                                 555+++,,,,,,",
"444,,,,,,+++555                                 555+++,,,,,,",
"444,,,,,,+++555                                 555+++,,,,,,",
"444,,,,,,+++555                                 555+++,,,,,,",
"444,,,,,,+++555                                 555+++,,,,,,",
"444,,,,,,+++555                                 555+++,,,,,,",
"444,,,,,,+++555                                 555+++,,,,,,",
"111444444;;;888                              ooo888;;;444444",
"111444444;;;888                              ooo888;;;444444",
"111444444;;;888                              ooo888;;;444444",
"444111111<<<@@@555555888555555555555555555888***@@@<<<111111",
"444111111<<<@@@555555888555555555555555555888***@@@<<<111111",
"444111111<<<@@@555555888555555555555555555888***@@@<<<111111",
"444,,,,,,,,,:::++++++;;;+++++++++++++++@@@;;;===,,,,,,,,,,,,",
"444,,,,,,,,,:::++++++;;;+++++++++++++++@@@;;;===,,,,,,,,,,,,",
"444,,,,,,,,,:::++++++;;;+++++++++++++++@@@;;;===,,,,,,,,,,,,",
"444,,,,,,,,,,,,,,,,,,444,,,,,,,,,,,,,,,111444,,,,,,,,,,,,,,,",
"444,,,,,,,,,,,,,,,,,,444,,,,,,,,,,,,,,,111444,,,,,,,,,,,,,,,",
"444,,,,,,,,,,,,,,,,,,444,,,,,,,,,,,,,,,111444,,,,,,,,,,,,,,,",
"444,,,,,,,,,,,,,,,,,,444,,,,,,,,,,,,,,,,,,444,,,,,,,,,,,,,,,",
"444,,,,,,,,,,,,,,,,,,444,,,,,,,,,,,,,,,,,,444,,,,,,,,,,,,,,,",
"444,,,,,,,,,,,,,,,,,,444,,,,,,,,,,,,,,,,,,444,,,,,,,,,,,,,,,",
"111444444444444444444111444444444444444444111444444444444444",
"111444444444444444444111444444444444444444111444444444444444",
"111444444444444444444111444444444444444444111444444444444444"
};
