/* XPM */
static char *ddfeccccdde04b5ad187324f41b98873wUwyYxPla0D1ITnq[] = {
/* columns rows colors chars-per-pixel */
"60 60 35 1 ",
"  c #1F2731",
". c #212A35",
"X c #272E35",
"o c #212C3A",
"O c #2B3137",
"+ c #25303B",
"@ c #25303D",
"# c #273343",
"$ c #2B3541",
"% c #2B394B",
"& c #2C3948",
"* c #2D3C4E",
"= c #303E4E",
"- c #3C4044",
"; c #3D4045",
": c #3E4145",
"> c #3E4246",
", c #3F4347",
"< c #324152",
"1 c #324253",
"2 c #3A4857",
"3 c #404347",
"4 c #484848",
"5 c #494949",
"6 c gray33",
"7 c gray39",
"8 c #7B7C7D",
"9 c #7E7E7E",
"0 c gray50",
"q c #808080",
"w c #848484",
"e c gray52",
"r c #8E8E8E",
"t c gray57",
"y c #929292",
/* pixels */
"222<<<<<<<<<<<<<<<<<<222<<<<<<<<<<<<<<<<<<222<<<<<<<<<<<<<<<",
"222<<<<<<<<<<<<<<<<<<222<<<<<<<<<<<<<<<<<<222<<<<<<<<<<<<<<<",
"222<<<<<<<<<<<<<<<<<<222<<<<<<<<<<<<<<<<<<222<<<<<<<<<<<<<<<",
"222***************<<<222<<<***************222***************",
"222***************<<<222<<<***************222***************",
"222***************<<<222<<<***************222***************",
"222******************222******************222***************",
"222******************222******************222***************",
"222******************222******************222***************",
"222******************222******************222***************",
"222******************222******************222***************",
"222******************222******************222***************",
"<<<222222222222222222<<<222222222222222222<<<222222222222222",
"<<<222222222222222222<<<222222222222222222<<<222222222222222",
"<<<222222222222222222<<<222222222222222222<<<222222222222222",
"222<<<<<<<<<===@@@@@@$$$@@@@@@@@@@@@@@@@@@$$$&&&<<<<<<<<<<<<",
"222<<<<<<<<<==*@@@@@@$$$@@@@@@@@@@@@@@@@@@$$$&&&<<<<<<<<<<<<",
"222<<<<<<<<<===@@@@@@$$$@@@@@@@@@@@@@@@@@@$$$&&&<<<<<<<<<<<<",
"222******%%%   -::::::::::::::::::::-::::::::XXX...%%%******",
"222******%%%   -:::::::::::::::::::::::::::::XXX...%%%******",
"222******%%%   ::::::::::::::::::::::::::::::XXX...%%%******",
"222******ooo::-999999999wwwwwwtttttttttrrr999999:::ooo******",
"222******ooo:::999999999wwwwwwtttttttttrrr999999:::ooo******",
"222******ooo:::999999999wwwwwwtttttttttrrr999999:::ooo******",
"222******ooo:::999777999777999777999777999777999::-ooo******",
"222******ooo:::999777999777999777999777999777999::-ooo******",
"222******ooo:::999777999777999777999777999777999:--ooo******",
"<<<222222$$$:::rrr666ttt666ttt666ttt666rrr666rrr:::$$$222222",
"<<<222222$$$:::rrr666ttt666ttt666ttt666rrr666rrr:::$$$222222",
"<<<222222$$$:::rrr666ttt666ttt666ttt666rrr666rrr:::$$$222222",
"222<<<<<<@@@:::ttt666www666ttt666ttt666www666rrr:::@@@<<<<<<",
"222<<<<<<@@@:::ttt666www666ttt666ttt666www666rrr:::@@@<<<<<<",
"222<<<<<<@@@:::ttt666www666ttt666ttt666www666rrr:::@@@<<<<<<",
"222<<<***ooo:::www666www666www666www666www666999:::ooo******",
"222<<<***ooo:::www666www666www666www666www666999:::ooo******",
"222<<<***ooo:::www666www666www666www666www666999:::ooo******",
"222******ooo:::999666999666999666999666999666999:::ooo******",
"222******ooo:::999666999666999666999666999666999:::ooo******",
"222******ooo:::999666999666999666999666999666999:::ooo******",
"222******ooo:::999555999555qqq555qqq555999555999:::ooo******",
"222******ooo:::999555999555qqq555qqq555999555999:::ooo******",
"222******ooo:::999555999555qqq555qqq555999555999:::ooo******",
"<<<222222$$$333qqqqqqqqqwwwwwwwwwwwwwwwwwwqqq888333$$$222222",
"<<<222222$$$333qqqqqqqqqwwwwwwwwwwwwwwwwwwqqq888333$$$222222",
"<<<222222$$$333qqqqqqqqqwwwwwwwwwwwwwwwwwwqqq888333$$$222222",
"222<<<<<<===+++::::::333::::::::::::::::::333OOO@@@===<<<<<<",
"222<<<<<<===+++::::::333::::::::::::::::::333OOO@@@===<<<<<<",
"222<<<<<<===+++::::::333::::::::::::::::::333OOO@@@===<<<<<<",
"222*********%%%oooooo$$$ooooooooooooooo@@@$$$###************",
"222*********%%%oooooo$$$ooooooooooooooo@@@$$$###************",
"222*********%%%oooooo$$$ooooooooooooooo@@@$$$###************",
"222******************222***************<<<222***************",
"222******************222***************<<<222***************",
"222******************222***************<<<222***************",
"222******************222******************222***************",
"222******************222******************222***************",
"222******************222******************222***************",
"<<<222222222222222222<<<222222222222222222<<<222222222222222",
"<<<222222222222222222<<<222222222222222222<<<222222222222222",
"<<<222222222222222222<<<222222222222222222<<<222222222222222"
};
