/* XPM */
static char *dcef3010914a49c5bf94f185b73c64daISmSFFvdaFtEQ6NS[] = {
/* columns rows colors chars-per-pixel */
"60 60 4 1 ",
"  c #2D3C4E",
". c #324152",
"X c #324253",
"o c #3A4857",
/* pixels */
"ooo..................ooo..................ooo...............",
"ooo..................ooo..................ooo...............",
"ooo..................ooo..................ooo...............",
"ooo               ...ooo...               ooo               ",
"ooo               ...ooo...               ooo               ",
"ooo               ...ooo...               ooo               ",
"ooo                  ooo                  ooo               ",
"ooo                  ooo                  ooo               ",
"ooo                  ooo                  ooo               ",
"ooo                  ooo                  ooo               ",
"ooo                  ooo                  ooo               ",
"ooo                  ooo                  ooo               ",
"...oooooooooooooooooo...oooooooooooooooooo...ooooooooooooooo",
"...oooooooooooooooooo...oooooooooooooooooo...ooooooooooooooo",
"...oooooooooooooooooo...oooooooooooooooooo...ooooooooooooooo",
"ooo..................ooo..................ooo...............",
"ooo..................ooo..................ooo...............",
"ooo..................ooo..................ooo...............",
"ooo               ...ooo               ...ooo...            ",
"ooo               ...ooo               ...ooo...            ",
"ooo               ...ooo               ...ooo...            ",
"ooo                  ooo                  ooo               ",
"ooo                  ooo                  ooo               ",
"ooo                  ooo                  ooo               ",
"ooo                  ooo                  ooo               ",
"ooo                  ooo                  ooo               ",
"ooo                  ooo                  ooo               ",
"...oooooooooooooooooo...oooooooooooooooooo...ooooooooooooooo",
"...oooooooooooooooooo...oooooooooooooooooo...ooooooooooooooo",
"...oooooooooooooooooo...oooooooooooooooooo...ooooooooooooooo",
"ooo..................ooo..................ooo...............",
"ooo..................ooo..................ooo...............",
"ooo..................ooo..................ooo...............",
"ooo...               ooo                  ooo...            ",
"ooo...               ooo                  ooo...            ",
"ooo...               ooo                  ooo...            ",
"ooo                  ooo                  ooo               ",
"ooo                  ooo                  ooo               ",
"ooo                  ooo                  ooo               ",
"ooo                  ooo                  ooo               ",
"ooo                  ooo                  ooo               ",
"ooo                  ooo                  ooo               ",
"...oooooooooooooooooo...oooooooooooooooooo...ooooooooooooooo",
"...oooooooooooooooooo...oooooooooooooooooo...ooooooooooooooo",
"...oooooooooooooooooo...oooooooooooooooooo...ooooooooooooooo",
"ooo..................ooo..................ooo...............",
"ooo..................ooo..................ooo...............",
"ooo..................ooo..................ooo...............",
"ooo                  ooo               ...ooo               ",
"ooo                  ooo               ...ooo               ",
"ooo                  ooo               ...ooo               ",
"ooo                  ooo               ...ooo               ",
"ooo                  ooo               ...ooo               ",
"ooo                  ooo               ...ooo               ",
"ooo                  ooo                  ooo               ",
"ooo                  ooo                  ooo               ",
"ooo                  ooo                  ooo               ",
"...oooooooooooooooooo...oooooooooooooooooo...ooooooooooooooo",
"...oooooooooooooooooo...oooooooooooooooooo...ooooooooooooooo",
"...oooooooooooooooooo...oooooooooooooooooo...ooooooooooooooo"
};
