/* XPM */
static char *ea624a8fa024459dab173a032612f46fj6RbUnA38HE7fWmT[] = {
/* columns rows colors chars-per-pixel */
"60 60 10 1 ",
"  c black",
". c #261700",
"X c #2D3C4E",
"o c #324152",
"O c #324253",
"+ c #3A4857",
"@ c #717171",
"# c #9B4F4F",
"$ c gray55",
"% c #CFB4B4",
/* pixels */
"+++oooooooooooooooooo+++oooooooooooooooooo+++ooooooooooooooo",
"+++oooooooooooooooooo+++oooooooooooooooooo+++ooooooooooooooo",
"+++oooooooooooooooooo+++oooooooooooooooooo+++ooooooooooooooo",
"+++XXXXXXXXXXXXXXXooo+++oooXXXXXXXXXXXXXXX+++XXXXXXXXXXXXXXX",
"+++XXXXXXXXXXXXXXXooo+++oooXXXXXXXXXXXXXXX+++XXXXXXXXXXXXXXX",
"+++XXXXXXXXXXXXXXXooo+++oooXXXXXXXXXXXXXXX+++XXXXXXXXXXXXXXX",
"+++XXXXXXXXXXXXXXXXXX+++XXXXXXXXXXXXXXXXXX+++XXXXXXXXXXXXXXX",
"+++XXXXXXXXXXXXXXXXXX+++XXXXXXXXXXXXXXXXXX+++XXXXXXXXXXXXXXX",
"+++XXXXXXXXXXXXXXXXXX+++XXXXXXXXXXXXXXXXXX+++XXXXXXXXXXXXXXX",
"+++XXXXXXXXXXXXXXXXXX+++XXXXXXXXXXXXXXXXXX+++XXXXXXXXXXXXXXX",
"+++XXXXXXXXXXXXXXXXXX+++XXXXXXXXXXXXXXXXXX+++XXXXXXXXXXXXXXX",
"+++XXXXXXXXXXXXXXXXXX+++XXXXXXXXXXXXXXXXXX+++XXXXXXXXXXXXXXX",
"ooo++++++++++++++++++ooo++++++++++++++++++ooo+++++++++++++++",
"ooo++++++++++++++++++ooo++++++++++++++++++ooo+++++++++++++++",
"ooo++++++++++++++++++ooo++++++++++++++++++ooo+++++++++++++++",
"+++oooooooooooooooooo+++         ooo      +++ooooooooooooooo",
"+++oooooooooooooooooo+++         ooo      +++ooooooooooooooo",
"+++oooooooooooooooooo+++         ooo      +++ooooooooooooooo",
"+++XXXXXXXXXXXXXXXooo   %%%%%%$$$   @@@@@@   oooXXXXXXXXXXXX",
"+++XXXXXXXXXXXXXXXooo   %%%%%%$$$   @@@@@@   oooXXXXXXXXXXXX",
"+++XXXXXXXXXXXXXXXooo   %%%%%%$$$   @@@@@@   oooXXXXXXXXXXXX",
"+++XXXXXXXXXXXXXXXXXX   %%%%%%$$$   @@@@@@   XXXXXXXXXXXXXXX",
"+++XXXXXXXXXXXXXXXXXX   %%%%%%$$$   @@@@@@   XXXXXXXXXXXXXXX",
"+++XXXXXXXXXXXXXXXXXX   %%%%%%$$$   @@@@@@   XXXXXXXXXXXXXXX",
"+++XXXXXX   XXXXXXXXX   %%%%%%$$$$$$$$$$$$$$$   XXXXXXXXXXXX",
"+++XXXXXX   XXXXXXXXX   %%%%%%$$$$$$$$$$$$$$$   XXXXXXXXXXXX",
"+++XXXXXX   XXXXXXXXX   %%%%%%$$$$$$$$$$$$$$$   XXXXXXXXXXXX",
"ooo+++   %%%   ++++++      %%%%%%$$$...$$$...   ++++++++++++",
"ooo+++   %%%   ++++++      %%%%%%$$$...$$$...   ++++++++++++",
"ooo+++   %%%   ++++++      %%%%%%$$$...$$$...   ++++++++++++",
"+++oooooo   %%%   ooo+++      $$$$$$...$$$...   oooooooooooo",
"+++oooooo   %%%   ooo+++      $$$$$$...$$$...   oooooooooooo",
"+++oooooo   %%%   ooo+++      $$$$$$...$$$...   oooooooooooo",
"+++oooXXXXXX   %%%      @@@@@@@@@$$$$$$%%%%%%###   XXXXXXXXX",
"+++oooXXXXXX   %%%      @@@@@@@@@$$$$$$%%%%%%###   XXXXXXXXX",
"+++oooXXXXXX   %%%      @@@@@@@@@$$$$$$%%%%%%###   XXXXXXXXX",
"+++XXXXXXXXXXXX   %%%@@@@@@@@@@@@@@@@@@         XXXXXXXXXXXX",
"+++XXXXXXXXXXXX   %%%@@@@@@@@@@@@@@@@@@         XXXXXXXXXXXX",
"+++XXXXXXXXXXXX   %%%@@@@@@@@@@@@@@@@@@         XXXXXXXXXXXX",
"+++XXXXXXXXXXXXXXX   @@@@@@@@@@@@@@@@@@   +++XXXXXXXXXXXXXXX",
"+++XXXXXXXXXXXXXXX   @@@@@@@@@@@@@@@@@@   +++XXXXXXXXXXXXXXX",
"+++XXXXXXXXXXXXXXX   @@@@@@@@@@@@@@@@@@   +++XXXXXXXXXXXXXXX",
"ooo++++++++++++++++++   @@@      @@@   +++ooo+++++++++++++++",
"ooo++++++++++++++++++   @@@      @@@   +++ooo+++++++++++++++",
"ooo++++++++++++++++++   @@@      @@@   +++ooo+++++++++++++++",
"+++oooooooooooooooooo+++oooooooooooooooooo+++ooooooooooooooo",
"+++oooooooooooooooooo+++oooooooooooooooooo+++ooooooooooooooo",
"+++oooooooooooooooooo+++oooooooooooooooooo+++ooooooooooooooo",
"+++XXXXXXXXXXXXXXXXXX+++XXXXXXXXXXXXXXXooo+++XXXXXXXXXXXXXXX",
"+++XXXXXXXXXXXXXXXXXX+++XXXXXXXXXXXXXXXooo+++XXXXXXXXXXXXXXX",
"+++XXXXXXXXXXXXXXXXXX+++XXXXXXXXXXXXXXXooo+++XXXXXXXXXXXXXXX",
"+++XXXXXXXXXXXXXXXXXX+++XXXXXXXXXXXXXXXooo+++XXXXXXXXXXXXXXX",
"+++XXXXXXXXXXXXXXXXXX+++XXXXXXXXXXXXXXXooo+++XXXXXXXXXXXXXXX",
"+++XXXXXXXXXXXXXXXXXX+++XXXXXXXXXXXXXXXooo+++XXXXXXXXXXXXXXX",
"+++XXXXXXXXXXXXXXXXXX+++XXXXXXXXXXXXXXXXXX+++XXXXXXXXXXXXXXX",
"+++XXXXXXXXXXXXXXXXXX+++XXXXXXXXXXXXXXXXXX+++XXXXXXXXXXXXXXX",
"+++XXXXXXXXXXXXXXXXXX+++XXXXXXXXXXXXXXXXXX+++XXXXXXXXXXXXXXX",
"ooo++++++++++++++++++ooo++++++++++++++++++ooo+++++++++++++++",
"ooo++++++++++++++++++ooo++++++++++++++++++ooo+++++++++++++++",
"ooo++++++++++++++++++ooo++++++++++++++++++ooo+++++++++++++++"
};
