/* XPM */
static char *e8a011b8432345fc830e297df1ca1f7fmH2XC4Vp3vfU8Bjc[] = {
/* columns rows colors chars-per-pixel */
"32 32 7 1 ",
"  c #4E3E35",
". c #5F5121",
"X c #534238",
"o c #644F43",
"O c #D8B94C",
"+ c #FDE17F",
"@ c #F1F0FD",
/* pixels */
"oooooXXXXooooooooooooooooooooooo",
"oooooooooooooooooooooooooooooooo",
"oooooooooooooooooooooooooooooooo",
"oooooooooooooooooooooooooooooo  ",
"oooooooooooooooooooooooooooooooX",
"oooooooooooooooooooooooooooooooo",
"oooooooooooooooooooooooooooooooo",
"oooooooooooooooooooooooooooooooo",
"oooooooooooooooooooooooooooooooo",
"oooooooooooooooooooooooooooooooo",
"oooooooooooooooooooooooooooooooo",
"oooooooooooooooooooo      oooooo",
"oooooooooooooo...ooooXXXoooooooo",
"ooooooooooooo.O++.....oooooooooo",
"ooooooooooooo.O.+O++O.oooooooooo",
"ooooooooooooo@O.+...O.oooooooooo",
"ooooooooooooo@@++.oo..oooooooooo",
"oooooooooooooo@..ooooooooooooooo",
"oooooooooooooooooooooooooooooooo",
"oooooooooooooooXXXXooooooooooooo",
"oooooooooooooooooooooooooooooooo",
"ooo       oooooooooooooooooooooo",
"o  XXXXXXXoooooooooooooooooooooo",
"oXXXXXoooooooooooooooooooooooooo",
"oooooooooooooooooooooooooooooooo",
"ooooooooooooooooooooooooooooooo ",
"oooooooooooooooooooooooooooooooo",
"oooooooooooooooooooooooooooooooo",
"ooooooooooooo     oooooooooooooo",
"oooooooooo   XXXXX ooooooooooooo",
"ooooooooooooXXXXXXXooooooooooooo",
"oooooooooooooooooooooooooooooooo"
};
