/* XPM */
static char *_dc117a9ce5440abb13066052480c30fggiZVF8SMOkMO474[] = {
/* columns rows colors chars-per-pixel */
"32 32 7 1 ",
"  c #2B2B2A",
". c #4E3E35",
"X c #534238",
"o c #7D4D2A",
"O c #644F43",
"+ c #9A643C",
"@ c #BA8055",
/* pixels */
"OOOOOXXXXOOOOOOOOOOOOOOOOOOOOOOO",
"OOOOOOOOOOOOOOOOOOOOOOOOOOOOOOOO",
"OOOOOOOOOOOOOOOOOOOOOOOOOOOOOOOO",
"OOOOOOOOOOOOOOOOOOOOOOOOOOOOOO..",
"OOOOOO   OOOOOOOOO   OOOOOOOOOOX",
"OOOOO @@@ OOOOOOO @@@ OOOOOOOOOO",
"OOOOO o++ OOOOOOO o++ OOOOOOOOOO",
"OOOOO o++         o++ OOOOOOOOOO",
"OOOOO o++@@@@@@@@@@++ OOOOOOOOOO",
"OOOOO o++++++++++++++ OOOOOOOOOO",
"OOOOO o++         o++ OOOOOOOOOO",
"OOOOO o++         o++ ....OOOOOO",
"OOOXX o++@@@@@@@@@@++ XXOOOOOOOO",
"OOXXX o++++++++++++++ XXXOOOOOOO",
"OOXXX o++         o++ XXXXOOOOOO",
"OOX   ooo         ooo   XXOOOOOO",
"OO                       OOOOOOO",
"OOO                     OOOOOOOO",
"OOOOO                 OOOOOOOOOO",
"OOOOOOOO           OOOOOOOOOOOOO",
"OOOOOOOOOOOOOOOOOOOOOOOOOOOOOOOO",
"OOO.......OOOOOOOOOOOOOOOOOOOOOO",
"O..XXXXXXXOOOOOOOOOOOOOOOOOOOOOO",
"OXXXXXOOOOOOOOOOOOOOOOOOOOOOOOOO",
"OOOOOOOOOOOOOOOOOOOOOOOOOOOOOOOO",
"OOOOOOOOOOOOOOOOOOOOOOOOOOOOOOO.",
"OOOOOOOOOOOOOOOOOOOOOOOOOOOOOOOO",
"OOOOOOOOOOOOOOOOOOOOOOOOOOOOOOOO",
"OOOOOOOOOOOOO.....OOOOOOOOOOOOOO",
"OOOOOOOOOO...XXXXX.OOOOOOOOOOOOO",
"OOOOOOOOOOOOXXXXXXXOOOOOOOOOOOOO",
"OOOOOOOOOOOOOOOOOOOOOOOOOOOOOOOO"
};
