/* XPM */
static char *_ed9260f9dec4456a675241708e8d766r3RIfJU2k3yS47Oc[] = {
/* columns rows colors chars-per-pixel */
"32 32 6 1 ",
"  c #1E1E1E",
". c #4E3E35",
"X c #534238",
"o c #644F43",
"O c #FFC7B0",
"+ c #F4CFB9",
/* pixels */
"oooooXXXXooooooooooooooooooooooo",
"oooooooooooooooooooooooooooooooo",
"oooooooooooooooooooooooooooooooo",
"oooooooooooooooooooooooooooooo..",
"oooooooooooooo       ooooooooooX",
"ooooooooooooo OOOOOOO oooooooooo",
"oooooooooooo OOOOOOOOO ooooooooo",
"oooooooooooo OO  OOO   ooooooooo",
"oooooooooooo OOOOOOOOO ooooooooo",
"oooooooooooo OOO OOO O ooooooooo",
"oooooooooooo OOO OOO O ooooooooo",
"oooooooooooo OOOOOOOOO ...oooooo",
"oooooooooooo OOOOOOOOO Xoooooooo",
"ooooooooooooo OOOOOOO oooooooooo",
"oooooooooooooo  OOO  ooooooooooo",
"ooooooooooooo  OOOOO  oooooooooo",
"oooooooooooo ++OOOOO + ooooooooo",
"oooooooooooo ++OOOOO + ooooooooo",
"ooooooooooooo  OOOOO  oooooooooo",
"oooooooooooooo OOOOO ooooooooooo",
"oooooooooooooo O   O ooooooooooo",
"ooo.......oooo O o O ooooooooooo",
"o..XXXXXXXoooo O o O ooooooooooo",
"oXXXXXoooooooo   o   ooooooooooo",
"oooooooooooooooooooooooooooooooo",
"ooooooooooooooooooooooooooooooo.",
"oooooooooooooooooooooooooooooooo",
"oooooooooooooooooooooooooooooooo",
"ooooooooooooo.....oooooooooooooo",
"oooooooooo...XXXXX.ooooooooooooo",
"ooooooooooooXXXXXXXooooooooooooo",
"oooooooooooooooooooooooooooooooo"
};
