/* XPM */
static char *b74f4caf7ecc4483d1b5d7415c5e9c4304uzDQAuJh20yrdi[] = {
/* columns rows colors chars-per-pixel */
"32 32 6 1 ",
"  c gray54",
". c #646463",
"X c gray43",
"o c #5A5A59",
"O c #676767",
"+ c white",
/* pixels */
"       .       .       .       .",
"     XX.       . X     .       .",
"      X.       .       .      X.",
"XXXXXXXoXXXXXXXoXXXXXXXoXXXXXXXo",
"XXXXXXXoXXXXXXXoXXXXXXXoXXXXXXXo",
"OOOOOOOoOOOOOOOoOOOOOOOoOOOOOOOo",
"oooooooooooooooooooooooooooooooo",
"      o     o     o       o    o",
"XXXXXXoXXXXXoXXXXXoXXXXXXXoXXXXo",
"oXXXXXoXXXXXoXXXXXoXXXXXXXoXXXXo",
"OoOOOOoOOOOOoOOOOOoOOOOOOOoOOOOo",
"oooooooooooooooooooooooooooooooo",
"   o     o      o      o    o   ",
"XXXoXXXXXoXXXXXXoXXXXXXoXXXXoXXX",
"XXXoXXXXXoooXXoXoXXXXXXoXXXXoXXX",
"OOOoOOOOOoooOOOOoOOOOOOoOOOOoOOO",
"oooooooooooooooooooooooooooooooo",
"      o      o      o    o     o",
"XXXXXXoXXXXXXoXXXXXXoXXXXoXXXXXo",
"XXXXXXoXXXXXXoXXXXXXoXXXXoXXXoXo",
"OOOOOOoOOOOOOoOOOOOOoOOOOoOOOOoo",
"oooooooooooooooooooooooooooooooo",
"  o      o       o     o    o   ",
"XXoXXXXXXoXXXXXXXoXXXXXoXXXXoXXX",
"XXoXXXXXXoXXXXXXXoXXXXXoXXXooXXX",
"OOoOOOOOOoOOOOOOOoOOOOOoOOoOoOOO",
"oooooooooooooooooooooooooooooooo",
"      o      o      o     o    o",
"XXXXXXoXXXXXXoXXXXXXoXXXXXoXXXXo",
"XXXXXXoXXXXoooXXXXXXoXXXXXoXXXXo",
"OOOOOOoOOOoOOoOOOOOOoOOOOOoOOOOo",
"oooooooooooooooooooooooooooooooo"
};
